<svg xmlns="http://www.w3.org/2000/svg" width="32" height="32" viewBox="0 0 32 32">
  <style>
    .st0{fill:#D4AF37;}
    .st1{fill:#000000;}
  </style>
  <circle cx="16" cy="16" r="15" fill="#000000"/>
  <path class="st0" d="M16,3c7.2,0,13,5.8,13,13s-5.8,13-13,13S3,23.2,3,16S8.8,3,16,3 M16,1C7.7,1,1,7.7,1,16s6.7,15,15,15s15-6.7,15-15S24.3,1,16,1L16,1z"/>
  <g>
    <path class="st0" d="M6.5,14c0-5.2,4.3-9.5,9.5-9.5c2.7,0,5.1,1.1,6.9,2.9"/>
    <path class="st0" d="M25.5,18c0,5.2-4.3,9.5-9.5,9.5c-2.7,0-5.1-1.1-6.9-2.9"/>
  </g>
  <path class="st0" d="M11,13.5c0,0,2-0.8,5-0.8s5,0.8,5,0.8v6.4c0,0-2,0.8-5,0.8s-5-0.8-5-0.8V13.5z"/>
  <rect x="15.2" y="8" width="1.6" height="5.5" class="st0"/>
  <ellipse cx="16" cy="13.5" rx="5" ry="0.8" fill="#000000"/>
</svg>
